<svg xmlns="http://www.w3.org/2000/svg" xmlns:xlink="http://www.w3.org/1999/xlink" viewBox="0 0 600 380" width="600" height="380" class="pz-root"><style>:root{color-scheme:light;box-sizing:border-box;padding-top:env(safe-area-inset-top,0px);padding-bottom:env(safe-area-inset-bottom,0px)}:root{
  --paper:#EDF0E7; --paper-2:#E0E5D8; --ink:#1B2420; --ink-2:#48534D; --mute:#838B83; --rule:#C5CCBD;
  --ret:#2C6A4C; --risk:#2E4D80; --time:#87631A; --alarm:#B03F28;
  --f-body:"Noto Serif KR","Noto Serif CJK KR","AppleMyungjo","Nanum Myeongjo",serif;
  --f-disp:"Hahmlet","Noto Serif KR","AppleMyungjo",serif;
  --f-latin:"Bodoni Moda","Didot","Bodoni 72","Times New Roman",serif;
  --f-mono:"Fragment Mono","SFMono-Regular",Menlo,Consolas,"Noto Sans Mono CJK KR",monospace;
  --f-dg:"Sunflower","Apple SD Gothic Neo","Noto Sans KR","Noto Sans CJK KR",sans-serif;
  --pad:1.15rem; --measure:39rem; --wide:51rem;
}@media (min-width:34em){:root{ --pad:1.6rem }}@media (min-width:52em){:root{ --pad:2rem }}@media (prefers-color-scheme:dark){:root:not([data-theme="light"]){
  --paper:#0F1613; --paper-2:#18221D; --ink:#E4E1D5; --ink-2:#B3B0A3; --mute:#7D847A; --rule:#2D3933;
  --ret:#5DAE86; --risk:#86A4DA; --time:#D2A64C; --alarm:#E5765C; color-scheme:dark }}:root[data-theme="dark"]{
  --paper:#0F1613; --paper-2:#18221D; --ink:#E4E1D5; --ink-2:#B3B0A3; --mute:#7D847A; --rule:#2D3933;
  --ret:#5DAE86; --risk:#86A4DA; --time:#D2A64C; --alarm:#E5765C; color-scheme:dark }.wrap{padding-inline:var(--pad); padding-block:1.4rem 5rem}.doc{display:grid; grid-template-columns:minmax(0,1fr); row-gap:1.15rem}.lecture{display:contents}.t-risk{color:var(--risk)}.fig{margin:0}.fig .frame{overflow-x:auto; -webkit-overflow-scrolling:touch; border-top:1px solid var(--rule); border-bottom:1px solid var(--rule); padding:.6rem 0;
  background:
    linear-gradient(to right, var(--paper) 30%, transparent) left center/2.2rem 100% no-repeat local,
    linear-gradient(to left, var(--paper) 30%, transparent) right center/2.2rem 100% no-repeat local,
    radial-gradient(farthest-side at 0 50%, rgba(0,0,0,.16), transparent) left center/.9rem 100% no-repeat scroll,
    radial-gradient(farthest-side at 100% 50%, rgba(0,0,0,.16), transparent) right center/.9rem 100% no-repeat scroll;}.dg{display:block; width:100%; height:auto; min-width:var(--dg-min,500px); max-width:720px; margin-inline:auto; overflow:visible}.fig.narrow .dg{min-width:0; max-width:440px; margin-inline:auto}.dg text{font-family:var(--f-dg); font-size:15px; fill:var(--ink); font-weight:500}.dg .t-s{font-size:13.5px}.dg .t-xs{font-size:12.5px}.dg .b{font-weight:700}.dg .t-num{font-family:var(--f-mono); font-size:13.5px; font-weight:400}.dg .t-ink2{fill:var(--ink-2)}.dg .t-risk{fill:var(--risk)}.dg .mid{text-anchor:middle}.dg .end{text-anchor:end}.dg .ln{stroke:var(--ink); stroke-width:1.5; fill:none}.dg .ln2{stroke:var(--ink-2); stroke-width:1.2; fill:none}.dg .ln-mute{stroke:var(--mute); stroke-width:1.1; fill:none}.dg .ln-risk{stroke:var(--risk); stroke-width:2.2; fill:none}.dg .thick{stroke-width:3.2}.dg .dash{stroke-dasharray:6 4}.dg .dot{stroke-dasharray:1.6 3.6; stroke-linecap:round}.dg .ax{stroke:var(--ink-2); stroke-width:1.2; fill:none}.dg .grid{stroke:var(--rule); stroke-width:.8; fill:none}.dg .f-ink{fill:var(--ink)}.dg .f-risk{fill:var(--risk)}.dg .mk2{fill:var(--ink-2)}svg.pz-root{width:600px!important;height:380px!important;padding:0!important;margin:0!important;border:0!important;overflow:hidden!important;min-width:0!important;max-width:none!important;min-height:0!important;max-height:none!important;box-shadow:none!important;outline:0!important;transform:none!important;opacity:1!important;visibility:visible!important}g.pz-w{display:inline!important;opacity:1!important;visibility:visible!important;transform:none!important;filter:none!important;animation:none!important;transition:none!important;clip-path:none!important;mask:none!important}svg.pz-inner{display:inline!important;min-width:0!important;max-width:none!important;min-height:0!important;max-height:none!important;padding:0!important;margin:0!important;border:0!important;transform:none!important;opacity:1!important;visibility:visible!important}</style><rect x="-10%" y="-10%" width="120%" height="120%" style="fill:var(--paper)"/><g class="pz-w wrap"><g class="pz-w doc"><g class="pz-w lecture"><g class="pz-w fig"><g class="pz-w frame"><svg xmlns="http://www.w3.org/2000/svg" aria-label="주식 펀드 S와 채권 펀드 B를 섞은 포트폴리오들의 표준편차와 기대수익. 상관이 1이면 직선이고, 상관이 낮을수록 곡선이 왼쪽으로 불룩해지며, 상관이 −1이면 꺾여서 위험 0에 닿는다." class="dg pz-inner" height="100%" role="img" viewBox="0 0 600 380" width="100%">
<defs><marker id="ar-f07a" markerHeight="8" markerUnits="userSpaceOnUse" markerWidth="8" orient="auto" refX="9" refY="5" viewBox="0 0 10 10"><path class="mk2" d="M0,0 L10,5 L0,10 z"></path></marker></defs>
<line class="grid" x1="70.0" x2="560.0" y1="288.6" y2="288.6"></line>
<line class="grid" x1="70.0" x2="560.0" y1="247.1" y2="247.1"></line>
<line class="grid" x1="70.0" x2="560.0" y1="205.7" y2="205.7"></line>
<line class="grid" x1="70.0" x2="560.0" y1="164.3" y2="164.3"></line>
<line class="grid" x1="70.0" x2="560.0" y1="122.9" y2="122.9"></line>
<line class="grid" x1="70.0" x2="560.0" y1="81.4" y2="81.4"></line>
<line class="ax" x1="70.0" x2="560.0" y1="330.0" y2="330.0"></line>
<line class="ax" x1="70.0" x2="70.0" y1="330.0" y2="40.0"></line>
<line class="ax" x1="70.0" x2="70.0" y1="330.0" y2="335.0"></line>
<text class="t-num mid t-ink2" x="70.0" y="350.0">0</text>
<line class="ax" x1="181.4" x2="181.4" y1="330.0" y2="335.0"></line>
<text class="t-num mid t-ink2" x="181.4" y="350.0">5</text>
<line class="ax" x1="292.7" x2="292.7" y1="330.0" y2="335.0"></line>
<text class="t-num mid t-ink2" x="292.7" y="350.0">10</text>
<line class="ax" x1="404.1" x2="404.1" y1="330.0" y2="335.0"></line>
<text class="t-num mid t-ink2" x="404.1" y="350.0">15</text>
<line class="ax" x1="515.5" x2="515.5" y1="330.0" y2="335.0"></line>
<text class="t-num mid t-ink2" x="515.5" y="350.0">20</text>
<line class="ax" x1="65.0" x2="70.0" y1="288.6" y2="288.6"></line>
<text class="t-num end t-ink2" x="61.0" y="293.6">5</text>
<line class="ax" x1="65.0" x2="70.0" y1="247.1" y2="247.1"></line>
<text class="t-num end t-ink2" x="61.0" y="252.1">6</text>
<line class="ax" x1="65.0" x2="70.0" y1="205.7" y2="205.7"></line>
<text class="t-num end t-ink2" x="61.0" y="210.7">7</text>
<line class="ax" x1="65.0" x2="70.0" y1="164.3" y2="164.3"></line>
<text class="t-num end t-ink2" x="61.0" y="169.3">8</text>
<line class="ax" x1="65.0" x2="70.0" y1="122.9" y2="122.9"></line>
<text class="t-num end t-ink2" x="61.0" y="127.9">9</text>
<line class="ax" x1="65.0" x2="70.0" y1="81.4" y2="81.4"></line>
<text class="t-num end t-ink2" x="61.0" y="86.4">10</text>
<text class="t-s end t-ink2" x="560.0" y="372.0">표준편차 σ (%)</text>
<text class="t-s t-ink2" x="78.0" y="28.0">기대수익 E(r) (%)</text>
<path class="ln" d="M292.7,288.6 L295.0,286.5 L297.2,284.4 L299.4,282.4 L301.6,280.3 L303.9,278.2 L306.1,276.1 L308.3,274.1 L310.5,272.0 L312.8,269.9 L315.0,267.9 L317.2,265.8 L319.5,263.7 L321.7,261.6 L323.9,259.6 L326.1,257.5 L328.4,255.4 L330.6,253.4 L332.8,251.3 L335.0,249.2 L337.3,247.1 L339.5,245.1 L341.7,243.0 L344.0,240.9 L346.2,238.9 L348.4,236.8 L350.6,234.7 L352.9,232.6 L355.1,230.6 L357.3,228.5 L359.5,226.4 L361.8,224.4 L364.0,222.3 L366.2,220.2 L368.5,218.1 L370.7,216.1 L372.9,214.0 L375.1,211.9 L377.4,209.9 L379.6,207.8 L381.8,205.7 L384.0,203.6 L386.3,201.6 L388.5,199.5 L390.7,197.4 L393.0,195.4 L395.2,193.3 L397.4,191.2 L399.6,189.1 L401.9,187.1 L404.1,185.0 L406.3,182.9 L408.5,180.9 L410.8,178.8 L413.0,176.7 L415.2,174.6 L417.5,172.6 L419.7,170.5 L421.9,168.4 L424.1,166.4 L426.4,164.3 L428.6,162.2 L430.8,160.1 L433.0,158.1 L435.3,156.0 L437.5,153.9 L439.7,151.9 L442.0,149.8 L444.2,147.7 L446.4,145.6 L448.6,143.6 L450.9,141.5 L453.1,139.4 L455.3,137.4 L457.5,135.3 L459.8,133.2 L462.0,131.1 L464.2,129.1 L466.5,127.0 L468.7,124.9 L470.9,122.9 L473.1,120.8 L475.4,118.7 L477.6,116.6 L479.8,114.6 L482.0,112.5 L484.3,110.4 L486.5,108.4 L488.7,106.3 L491.0,104.2 L493.2,102.1 L495.4,100.1 L497.6,98.0 L499.9,95.9 L502.1,93.9 L504.3,91.8 L506.5,89.7 L508.8,87.6 L511.0,85.6 L513.2,83.5 L515.5,81.4"></path>
<path class="ln-mute" d="M292.7,288.6 L288.3,286.5 L284.0,284.4 L279.7,282.4 L275.5,280.3 L271.4,278.2 L267.4,276.1 L263.4,274.1 L259.6,272.0 L255.9,269.9 L252.3,267.9 L248.8,265.8 L245.5,263.7 L242.3,261.6 L239.2,259.6 L236.3,257.5 L233.5,255.4 L231.0,253.4 L228.6,251.3 L226.3,249.2 L224.3,247.1 L222.5,245.1 L220.9,243.0 L219.5,240.9 L218.3,238.9 L217.3,236.8 L216.6,234.7 L216.1,232.6 L215.8,230.6 L215.8,228.5 L216.1,226.4 L216.5,224.4 L217.2,222.3 L218.1,220.2 L219.3,218.1 L220.6,216.1 L222.2,214.0 L224.0,211.9 L226.0,209.9 L228.2,207.8 L230.6,205.7 L233.2,203.6 L235.9,201.6 L238.8,199.5 L241.8,197.4 L245.0,195.4 L248.3,193.3 L251.8,191.2 L255.4,189.1 L259.1,187.1 L262.9,185.0 L266.8,182.9 L270.8,180.9 L274.9,178.8 L279.1,176.7 L283.3,174.6 L287.7,172.6 L292.1,170.5 L296.6,168.4 L301.1,166.4 L305.7,164.3 L310.4,162.2 L315.1,160.1 L319.8,158.1 L324.7,156.0 L329.5,153.9 L334.4,151.9 L339.3,149.8 L344.3,147.7 L349.3,145.6 L354.4,143.6 L359.4,141.5 L364.5,139.4 L369.7,137.4 L374.8,135.3 L380.0,133.2 L385.2,131.1 L390.5,129.1 L395.7,127.0 L401.0,124.9 L406.3,122.9 L411.6,120.8 L417.0,118.7 L422.3,116.6 L427.7,114.6 L433.1,112.5 L438.5,110.4 L443.9,108.4 L449.3,106.3 L454.8,104.2 L460.2,102.1 L465.7,100.1 L471.2,98.0 L476.7,95.9 L482.2,93.9 L487.7,91.8 L493.3,89.7 L498.8,87.6 L504.3,85.6 L509.9,83.5 L515.5,81.4"></path>
<path class="ln2 dash" d="M292.7,288.6 L70.0,219.5 L515.5,81.4"></path>
<path class="ln-risk dash" d="M292.7,288.6 L291.7,287.0 L290.8,285.5 L289.9,283.9 L289.1,282.3 L288.3,280.8 L287.6,279.2 L286.9,277.7 L286.3,276.1 L285.7,274.6 L285.2,273.0 L284.7,271.4 L284.3,269.9 L284.0,268.3 L283.7,266.8 L283.4,265.2 L283.2,263.7 L283.1,262.1 L283.0,260.5 L283.0,259.0"></path>
<path class="ln-risk thick" d="M283.0,259.0 L283.0,257.0 L283.1,255.0 L283.4,253.0 L283.7,251.0 L284.1,249.0 L284.6,247.0 L285.2,245.0 L285.9,243.0 L286.6,241.0 L287.5,239.0 L288.4,237.0 L289.4,235.0 L290.5,233.0 L291.7,231.1 L292.9,229.1 L294.3,227.1 L295.7,225.1 L297.2,223.1 L298.8,221.1 L300.4,219.1 L302.1,217.1 L303.9,215.1 L305.8,213.1 L307.7,211.1 L309.7,209.1 L311.7,207.1 L313.8,205.1 L316.0,203.1 L318.2,201.1 L320.5,199.1 L322.8,197.1 L325.2,195.1 L327.7,193.1 L330.2,191.2 L332.7,189.2 L335.3,187.2 L338.0,185.2 L340.7,183.2 L343.4,181.2 L346.2,179.2 L349.0,177.2 L351.9,175.2 L354.8,173.2 L357.7,171.2 L360.7,169.2 L363.7,167.2 L366.7,165.2 L369.8,163.2 L372.9,161.2 L376.1,159.2 L379.2,157.2 L382.4,155.2 L385.7,153.2 L388.9,151.3 L392.2,149.3 L395.5,147.3 L398.9,145.3 L402.2,143.3 L405.6,141.3 L409.0,139.3 L412.4,137.3 L415.9,135.3 L419.4,133.3 L422.9,131.3 L426.4,129.3 L429.9,127.3 L433.5,125.3 L437.0,123.3 L440.6,121.3 L444.2,119.3 L447.9,117.3 L451.5,115.3 L455.1,113.3 L458.8,111.4 L462.5,109.4 L466.2,107.4 L469.9,105.4 L473.6,103.4 L477.4,101.4 L481.1,99.4 L484.9,97.4 L488.7,95.4 L492.5,93.4 L496.3,91.4 L500.1,89.4 L503.9,87.4 L507.8,85.4 L511.6,83.4 L515.5,81.4"></path>
<line class="ln" x1="86" x2="116" y1="53" y2="53"></line>
<text class="t-s" x="124" y="58">ρ = 1 (분산 효과 없음)</text>
<line class="ln-risk thick" x1="86" x2="116" y1="77" y2="77"></line>
<text class="t-s" x="124" y="82">ρ = 0.2 (우리 예제)</text>
<line class="ln-mute" x1="86" x2="116" y1="101" y2="101"></line>
<text class="t-s" x="124" y="106">ρ = −0.5</text>
<line class="ln2 dash" x1="86" x2="116" y1="125" y2="125"></line>
<text class="t-s" x="124" y="130">ρ = −1</text>
<circle class="f-ink" cx="515.5" cy="81.4" r="4.2"></circle>
<circle class="f-ink" cx="292.7" cy="288.6" r="4.2"></circle>
<circle class="f-risk" cx="283.0" cy="259.0" r="4.2"></circle>
<circle class="f-ink" cx="70.0" cy="219.5" r="4.2"></circle>
<text class="b" x="525.5" y="86.4">S</text>
<text class="t-xs t-ink2" x="525.5" y="104.4">20%, 10%</text>
<text class="b" x="302.7" y="304.6">B</text>
<text class="t-xs t-ink2" x="318.7" y="304.6">10%, 5%</text>
<line class="ln-mute dot" x1="287.0" x2="341.0" y1="260.0" y2="267.0"></line>
<text class="t-s t-risk b" x="345.0" y="271.0">최소분산</text>
<text class="t-num t-ink2" x="345.0" y="288.0">σ 9.56, E 5.71</text>
<line class="ln-mute dot" x1="73.0" x2="90.0" y1="224.5" y2="281.5"></line>
<text class="t-s" x="94.0" y="293.5">S를 1/3 섞으면 σ = 0</text>
<text class="t-num t-ink2" x="94.0" y="311.5">E = 6.67</text>
</svg></g></g></g></g></g></svg>