<svg xmlns="http://www.w3.org/2000/svg" xmlns:xlink="http://www.w3.org/1999/xlink" viewBox="0 0 1000 340" width="1000" height="340" class="pz-root"><style>:root{color-scheme:light;box-sizing:border-box;padding-top:env(safe-area-inset-top,0px);padding-bottom:env(safe-area-inset-bottom,0px)}:root{
  --bg:#E7EAE8; --panel:#F3F5F4; --code-bg:#EEF1F0;
  --ink:#1B2224; --muted:#586365; --rule:#C1C9C8; --rule-soft:rgba(27,34,36,.07);
  --if:#2A5687; --if-soft:rgba(42,86,135,.12); --if-deep:#15375C;
  --ore:#8A6014; --ore-soft:rgba(138,96,20,.15);
  --cx:#7A3B72; --cx-soft:rgba(122,59,114,.12);
  --flag:#B3381B; --flag-soft:rgba(179,56,27,.10);
  --canary:#E9B30C;
  --f-body:"Source Serif 4","Noto Serif KR","Nanum Myeongjo","AppleMyungjo","Batang",serif;
  --f-disp:"Do Hyeon","Nanum Gothic","Apple SD Gothic Neo","Malgun Gothic","Noto Sans CJK KR",sans-serif;
  --f-label:"Nanum Gothic","Apple SD Gothic Neo","Malgun Gothic","Noto Sans CJK KR",sans-serif;
  --f-mono:"Red Hat Mono",ui-monospace,"SFMono-Regular",Menlo,Consolas,"Noto Sans Mono CJK KR",monospace;
  --pad:1.15rem; --measure:39rem; --wide:51rem; --shell:calc(var(--wide) + var(--pad)*2);
}@media (min-width:34em){:root{ --pad:1.6rem }}@media (min-width:52em){:root{ --pad:2rem }}@media (prefers-color-scheme:dark){:root:not([data-theme="light"]){
    color-scheme:dark;
    --bg:#0F1416; --panel:#161D20; --code-bg:#131A1D;
    --ink:#E1E7E6; --muted:#95A1A3; --rule:#2F3A3D; --rule-soft:rgba(225,231,230,.06);
    --if:#7EA7DA; --if-soft:rgba(126,167,218,.16); --if-deep:#3B6AA5;
    --ore:#D6A553; --ore-soft:rgba(214,165,83,.17);
    --cx:#CB8EC2; --cx-soft:rgba(203,142,194,.17);
    --flag:#EF7B57; --flag-soft:rgba(239,123,87,.14);
    --canary:#F4C63A;
  }}:root[data-theme="dark"]{
  color-scheme:dark;
  --bg:#0F1416; --panel:#161D20; --code-bg:#131A1D;
  --ink:#E1E7E6; --muted:#95A1A3; --rule:#2F3A3D; --rule-soft:rgba(225,231,230,.06);
  --if:#7EA7DA; --if-soft:rgba(126,167,218,.16); --if-deep:#3B6AA5;
  --ore:#D6A553; --ore-soft:rgba(214,165,83,.17);
  --cx:#CB8EC2; --cx-soft:rgba(203,142,194,.17);
  --flag:#EF7B57; --flag-soft:rgba(239,123,87,.14);
  --canary:#F4C63A;
}.mast{ max-width:var(--shell); margin:0 auto; padding-inline:var(--pad); padding-block:2.4rem 1rem }.hero{ margin:0; }.hero-svg{ display:block; width:100%; height:auto }@media (max-width:40em){.hero-lbl{ display:none }}.dg .t, .hero-svg .t{ font-family:var(--f-label); font-size:13px; fill:var(--ink) }.dg .t-if, .hero-svg .t-if{ fill:var(--if) }.dg line, .dg polyline, .dg path, .hero-svg line, .hero-svg polyline, .hero-svg path{ fill:none }.f-ore{ fill:var(--ore)!important }.f-ore-soft{ fill:var(--ore-soft)!important }.f-canary{ fill:var(--canary)!important }.ln-thin{ stroke:var(--ink); stroke-width:1 }.ln-hair{ stroke:var(--rule); stroke-width:1 }.strata{ stroke:var(--rule); stroke-width:1; fill:none }.cage{ stroke:var(--ink); stroke-width:1; fill:none }.s-ink-thin{ stroke:var(--ink); stroke-width:1 }.s-if{ stroke:var(--if); stroke-width:1.4 }.s-ore{ stroke:var(--ore); stroke-width:1.2 }.w25{ stroke-width:2.5 }.w4{ stroke-width:4 }.dash{ stroke-dasharray:4 3 }svg.pz-root{width:1000px!important;height:340px!important;padding:0!important;margin:0!important;border:0!important;overflow:hidden!important;min-width:0!important;max-width:none!important;min-height:0!important;max-height:none!important;box-shadow:none!important;outline:0!important;transform:none!important;opacity:1!important;visibility:visible!important}g.pz-w{display:inline!important;opacity:1!important;visibility:visible!important;transform:none!important;filter:none!important;animation:none!important;transition:none!important;clip-path:none!important;mask:none!important}svg.pz-inner{min-width:0!important;max-width:none!important;min-height:0!important;max-height:none!important;padding:0!important;margin:0!important;border:0!important;transform:none!important;opacity:1!important;visibility:visible!important}</style><rect x="-10%" y="-10%" width="120%" height="120%" style="fill:var(--bg)"/><g class="pz-w page"><g class="pz-w mast"><g class="pz-w hero"><svg xmlns="http://www.w3.org/2000/svg" aria-label="탄광 단면: 지표선이 인터페이스이고 그 아래 몸통이 숨긴 구현이다. 좁은 입구에 깊은 몸통, 넓고 납작한 몸통, 세 개로 잘게 나뉜 몸통, 지표에 닿지 않은 몸통이 있고, 한 갱도에 카나리아 새장이 매달려 있다." class="hero-svg pz-inner" height="100%" role="img" viewBox="0 0 1000 340" width="100%"><polyline class="strata" points="0,140.0 20,142.7 40,144.1 60,144.0 80,143.0 100,142.1 120,142.2 140,143.2 160,144.3 180,144.2 200,142.5 220,139.7 240,137.2 260,135.9 280,136.2 300,137.3 320,138.0 340,137.6 360,136.5 380,135.5 400,135.9 420,137.8 440,140.6 460,143.0 480,144.0 500,143.5 520,142.5 540,142.0 560,142.5 580,143.8 600,144.6 620,144.1 640,142.0 660,139.2 680,136.9 700,136.2 720,136.7 740,137.7 760,138.0 780,137.2 800,135.9 820,135.2 840,136.0 860,138.3 880,141.1 900,143.1 920,143.7 940,143.0 960,142.1 980,142.0 1000,143.0"></polyline><polyline class="strata" points="0,191.6 20,191.6 40,189.8 60,187.3 80,185.2 100,184.4 120,184.8 140,185.3 160,185.0 180,183.5 200,181.5 220,180.2 240,180.5 260,182.4 280,184.9 300,186.8 320,187.4 340,186.9 360,186.5 380,187.1 400,188.7 420,190.8 440,191.9 460,191.3 480,189.3 500,186.8 520,185.2 540,184.8 560,185.3 580,185.6 600,184.9 620,183.0 640,181.0 660,180.1 680,180.8 700,183.0 720,185.4 740,186.8 760,186.9 780,186.4 800,186.3 820,187.3 840,189.3 860,191.2 880,192.0 900,191.0 920,188.7 940,186.5 960,185.3 980,185.3 1000,185.9"></polyline><polyline class="strata" points="0,232.8 20,230.5 40,227.9 60,226.4 80,226.6 100,228.2 120,229.9 140,230.9 160,230.7 180,230.0 200,230.0 220,231.3 240,233.8 260,236.3 280,237.6 300,237.2 320,235.6 340,233.9 360,233.2 380,233.6 400,234.3 420,234.1 440,232.5 460,229.9 480,227.5 500,226.4 520,227.1 540,228.7 560,230.2 580,230.7 600,230.1 620,229.5 640,229.9 660,231.7 680,234.4 700,236.7 720,237.5 740,236.7 760,235.0 780,233.7 800,233.5 820,234.1 840,234.7 860,234.1 880,232.1 900,229.3 920,227.2 940,226.6 960,227.6 980,229.2 1000,230.3"></polyline><polyline class="strata" points="0,274.6 20,273.5 40,273.7 60,275.5 80,278.2 100,280.7 120,281.9 140,281.6 160,280.6 180,280.0 200,280.4 220,281.7 240,282.7 260,282.3 280,280.3 300,277.5 320,275.2 340,274.2 360,274.7 380,275.7 400,276.1 420,275.4 440,274.0 460,273.2 480,273.8 500,276.0 520,278.8 540,280.9 560,281.6 580,281.0 600,280.1 620,279.9 640,280.9 660,282.2 680,282.9 700,282.1 720,279.8 740,277.0 760,275.0 780,274.5 800,275.2 820,276.1 840,276.0 860,274.9 880,273.5 900,273.0 920,274.1 940,276.5 960,279.2 980,281.0 1000,281.2"></polyline><polyline class="strata" points="0,318.5 20,318.9 40,320.5 60,322.6 80,323.8 100,323.5 120,321.6 140,319.1 160,317.3 180,316.9 200,317.3 220,317.7 240,317.0 260,315.2 280,313.2 300,312.1 320,312.7 340,314.7 360,317.1 380,318.7 400,318.9 420,318.4 440,318.2 460,319.1 480,321.0 500,323.1 520,324.0 540,323.1 560,321.0 580,318.7 600,317.4 620,317.3 640,317.9 660,317.9 680,316.8 700,314.7 720,312.7 740,312.0 760,313.1 780,315.3 800,317.4 820,318.5 840,318.4 860,317.9 880,318.0 900,319.4 920,321.6 940,323.5 960,323.9 980,322.7 1000,320.5"></polyline><path class="ln-thin" d="M94,92 L112,62 L130,92"></path><line class="ln-thin" x1="112.0" x2="112.0" y1="62.0" y2="92.0"></line><path class="ln-thin" d="M480,92 L498,62 L516,92"></path><line class="ln-thin" x1="498.0" x2="498.0" y1="62.0" y2="92.0"></line><rect class="f-ore-soft s-ore" height="214.0" rx="0" width="44.0" x="90.0" y="92.0"></rect><rect class="f-ore-soft s-ore" height="30.0" rx="0" width="214.0" x="200.0" y="92.0"></rect><rect class="f-ore-soft s-ore" height="160.0" rx="0" width="56.0" x="470.0" y="92.0"></rect><rect class="f-ore-soft s-ore" height="24.0" rx="0" width="62.0" x="596.0" y="92.0"></rect><line class="s-if w4" x1="596.0" x2="658.0" y1="92.0" y2="92.0"></line><rect class="f-ore-soft s-ore" height="20.0" rx="0" width="62.0" x="668.0" y="92.0"></rect><line class="s-if w4" x1="668.0" x2="730.0" y1="92.0" y2="92.0"></line><rect class="f-ore-soft s-ore" height="28.0" rx="0" width="62.0" x="740.0" y="92.0"></rect><line class="s-if w4" x1="740.0" x2="802.0" y1="92.0" y2="92.0"></line><rect class="f-ore-soft s-ore dash" height="140.0" rx="0" width="84.0" x="852.0" y="150.0"></rect><line class="s-if w25" x1="0.0" x2="1000.0" y1="92.0" y2="92.0"></line><line class="s-if w4" x1="90.0" x2="134.0" y1="92.0" y2="92.0"></line><line class="s-if w4" x1="200.0" x2="414.0" y1="92.0" y2="92.0"></line><line class="s-if w4" x1="470.0" x2="526.0" y1="92.0" y2="92.0"></line><line class="ln-thin" x1="498.0" x2="498.0" y1="92.0" y2="114.0"></line><path class="ln-thin" d="M483,126 Q498,110 513,126"></path><rect class="cage" height="30.0" rx="1" width="30.0" x="483.0" y="126.0"></rect><line class="ln-hair" x1="490.0" x2="490.0" y1="126.0" y2="156.0"></line><line class="ln-hair" x1="498.0" x2="498.0" y1="122.0" y2="156.0"></line><line class="ln-hair" x1="506.0" x2="506.0" y1="126.0" y2="156.0"></line><ellipse class="f-canary s-ink-thin" cx="497" cy="144" rx="8" ry="5.5"></ellipse><circle class="f-canary s-ink-thin" cx="504" cy="138" r="4"></circle><path class="f-ore" d="M508,137.5 L512,139 L508,140.5 z"></path><path class="f-canary s-ink-thin" d="M489,144 L482,141 L483,148 z"></path><line class="ln-thin" x1="486.0" x2="510.0" y1="152.0" y2="152.0"></line><text class="t hero-lbl" text-anchor="middle" x="112.0" y="328.0">깊은 모듈</text><text class="t hero-lbl" text-anchor="middle" x="307.0" y="142.0">얕은 모듈</text><text class="t hero-lbl" text-anchor="middle" x="498.0" y="274.0">카나리아 = 레드 플래그</text><text class="t hero-lbl" text-anchor="middle" x="699.0" y="142.0">클래스염</text><text class="t hero-lbl" text-anchor="middle" x="894.0" y="312.0">인터페이스 없음</text><text class="t hero-lbl t-if" text-anchor="end" x="984.0" y="82.0">지표 = 인터페이스</text></svg></g></g></g></svg>