<svg xmlns="http://www.w3.org/2000/svg" xmlns:xlink="http://www.w3.org/1999/xlink" viewBox="0 0 790 250" width="790" height="250" class="frame fig lecture doc"><style>:root{color-scheme:light;box-sizing:border-box;padding-top:env(safe-area-inset-top,0px);padding-bottom:env(safe-area-inset-bottom,0px)}:root{
  --bg:#E8EBE7; --paper:#F4F6F2; --ink:#1B2230; --ink-2:#3A4352; --muted:#5C6572; --line:#C2C8C0;
  --rot:#2B4A99; --rot-soft:#DCE3F3; --spike:#B0392A; --spike-soft:#F2DAD4;
  --grid:#8A5D0B; --grid-soft:#F0E4C8; --pos:#08705F; --pos-soft:#D2EAE4; --doubt:#7A3566; --doubt-soft:#EEDCE8;
  --tile-m:#F4F6F2; --c-nv:#8A5D0B; --c-mx:#2B4A99;
  --f-body:"Literata","Noto Serif KR","Nanum Myeongjo",Georgia,serif;
  --f-disp:"Black Han Sans","Noto Serif KR","Apple SD Gothic Neo",sans-serif;
  --f-mono:"DM Mono",ui-monospace,"SFMono-Regular",Menlo,monospace;
  --f-dg:"Gowun Dodum","Apple SD Gothic Neo","Noto Sans KR","Malgun Gothic",sans-serif;
  --pad:1.15rem; --measure:39rem; --wide:51rem; --shell:calc(var(--wide) + var(--pad)*2);
}@media (min-width:34em){:root{ --pad:1.6rem }}@media (min-width:52em){:root{ --pad:2rem }}@media (prefers-color-scheme:dark){:root:not([data-theme="light"]){
    color-scheme:dark;
    --bg:#11151B; --paper:#18202A; --ink:#E3E7EC; --ink-2:#C4CAD3; --muted:#98A2AE; --line:#2F3946;
    --rot:#8DA7EE; --rot-soft:#1E2944; --spike:#EE7C6B; --spike-soft:#3A211D; --grid:#DCA84C; --grid-soft:#342A12;
    --pos:#4CC4B2; --pos-soft:#11302B; --doubt:#D588BF; --doubt-soft:#33202E; --tile-m:#18202A; --c-nv:#B8872F; --c-mx:#6F8AD6;
  }}:root[data-theme="dark"]{
  color-scheme:dark;
  --bg:#11151B; --paper:#18202A; --ink:#E3E7EC; --ink-2:#C4CAD3; --muted:#98A2AE; --line:#2F3946;
  --rot:#8DA7EE; --rot-soft:#1E2944; --spike:#EE7C6B; --spike-soft:#3A211D; --grid:#DCA84C; --grid-soft:#342A12;
  --pos:#4CC4B2; --pos-soft:#11302B; --doubt:#D588BF; --doubt-soft:#33202E; --tile-m:#18202A; --c-nv:#B8872F; --c-mx:#6F8AD6;
}.doc{ display:grid; grid-template-columns:minmax(0,1fr); row-gap:1.35rem; padding-inline:var(--pad); padding-block:1.5rem 4rem }.lecture{ display:contents }.fig{ margin:.4rem 0 .2rem }.frame{ overflow-x:auto; -webkit-overflow-scrolling:touch; border-radius:3px;
  background:
    linear-gradient(to right, var(--bg) 30%, transparent) left center / 24px 100% no-repeat local,
    linear-gradient(to left, var(--bg) 30%, transparent) right center / 24px 100% no-repeat local,
    radial-gradient(farthest-side at 0 50%, rgba(0,0,0,.18), transparent) left center / 10px 100% no-repeat scroll,
    radial-gradient(farthest-side at 100% 50%, rgba(0,0,0,.18), transparent) right center / 10px 100% no-repeat scroll; }.frame:focus-visible{ outline:2px solid var(--rot) }.dg{ width:100%; height:auto; display:block; font-family:var(--f-dg) }.dg text{ font-size:12px; fill:var(--ink) }.dg .t-s{ font-size:10.5px }.dg .t-b{ font-weight:700 }.dg .t-mut{ fill:var(--muted) }.dg .t-rot{ fill:var(--rot) }.dg .t-grid{ fill:var(--grid) }.dg .t-ink{ fill:var(--ink) }.dg .tile-p{ fill:var(--rot) }.dg .tile-m{ fill:var(--tile-m); stroke:var(--rot); stroke-width:.8 }.dg .tile-0{ fill:none; stroke:var(--line); stroke-width:.8 }.lecture > .frame{ max-width:var(--wide) }</style><rect x="-10%" y="-10%" width="120%" height="120%" style="fill:var(--bg)"/><svg xmlns="http://www.w3.org/2000/svg" aria-label="헤드마다 따로 도는 블록 대각 하다마드와 헤드 사이를 섞는 하다마드를 곱하면 전체 하다마드가 된다" class="dg" height="100%" role="img" style="" viewBox="0 0 790 250" width="100%"><rect class="tile-p" height="16" rx="1" width="16" x="30" y="26"></rect><rect class="tile-p" height="16" rx="1" width="16" x="48" y="26"></rect><rect class="tile-p" height="16" rx="1" width="16" x="66" y="26"></rect><rect class="tile-p" height="16" rx="1" width="16" x="84" y="26"></rect><rect class="tile-0" height="16" rx="1" width="16" x="102" y="26"></rect><rect class="tile-0" height="16" rx="1" width="16" x="120" y="26"></rect><rect class="tile-0" height="16" rx="1" width="16" x="138" y="26"></rect><rect class="tile-0" height="16" rx="1" width="16" x="156" y="26"></rect><rect class="tile-p" height="16" rx="1" width="16" x="30" y="44"></rect><rect class="tile-m" height="16" rx="1" width="16" x="48" y="44"></rect><rect class="tile-p" height="16" rx="1" width="16" x="66" y="44"></rect><rect class="tile-m" height="16" rx="1" width="16" x="84" y="44"></rect><rect class="tile-0" height="16" rx="1" width="16" x="102" y="44"></rect><rect class="tile-0" height="16" rx="1" width="16" x="120" y="44"></rect><rect class="tile-0" height="16" rx="1" width="16" x="138" y="44"></rect><rect class="tile-0" height="16" rx="1" width="16" x="156" y="44"></rect><rect class="tile-p" height="16" rx="1" width="16" x="30" y="62"></rect><rect class="tile-p" height="16" rx="1" width="16" x="48" y="62"></rect><rect class="tile-m" height="16" rx="1" width="16" x="66" y="62"></rect><rect class="tile-m" height="16" rx="1" width="16" x="84" y="62"></rect><rect class="tile-0" height="16" rx="1" width="16" x="102" y="62"></rect><rect class="tile-0" height="16" rx="1" width="16" x="120" y="62"></rect><rect class="tile-0" height="16" rx="1" width="16" x="138" y="62"></rect><rect class="tile-0" height="16" rx="1" width="16" x="156" y="62"></rect><rect class="tile-p" height="16" rx="1" width="16" x="30" y="80"></rect><rect class="tile-m" height="16" rx="1" width="16" x="48" y="80"></rect><rect class="tile-m" height="16" rx="1" width="16" x="66" y="80"></rect><rect class="tile-p" height="16" rx="1" width="16" x="84" y="80"></rect><rect class="tile-0" height="16" rx="1" width="16" x="102" y="80"></rect><rect class="tile-0" height="16" rx="1" width="16" x="120" y="80"></rect><rect class="tile-0" height="16" rx="1" width="16" x="138" y="80"></rect><rect class="tile-0" height="16" rx="1" width="16" x="156" y="80"></rect><rect class="tile-0" height="16" rx="1" width="16" x="30" y="98"></rect><rect class="tile-0" height="16" rx="1" width="16" x="48" y="98"></rect><rect class="tile-0" height="16" rx="1" width="16" x="66" y="98"></rect><rect class="tile-0" height="16" rx="1" width="16" x="84" y="98"></rect><rect class="tile-p" height="16" rx="1" width="16" x="102" y="98"></rect><rect class="tile-p" height="16" rx="1" width="16" x="120" y="98"></rect><rect class="tile-p" height="16" rx="1" width="16" x="138" y="98"></rect><rect class="tile-p" height="16" rx="1" width="16" x="156" y="98"></rect><rect class="tile-0" height="16" rx="1" width="16" x="30" y="116"></rect><rect class="tile-0" height="16" rx="1" width="16" x="48" y="116"></rect><rect class="tile-0" height="16" rx="1" width="16" x="66" y="116"></rect><rect class="tile-0" height="16" rx="1" width="16" x="84" y="116"></rect><rect class="tile-p" height="16" rx="1" width="16" x="102" y="116"></rect><rect class="tile-m" height="16" rx="1" width="16" x="120" y="116"></rect><rect class="tile-p" height="16" rx="1" width="16" x="138" y="116"></rect><rect class="tile-m" height="16" rx="1" width="16" x="156" y="116"></rect><rect class="tile-0" height="16" rx="1" width="16" x="30" y="134"></rect><rect class="tile-0" height="16" rx="1" width="16" x="48" y="134"></rect><rect class="tile-0" height="16" rx="1" width="16" x="66" y="134"></rect><rect class="tile-0" height="16" rx="1" width="16" x="84" y="134"></rect><rect class="tile-p" height="16" rx="1" width="16" x="102" y="134"></rect><rect class="tile-p" height="16" rx="1" width="16" x="120" y="134"></rect><rect class="tile-m" height="16" rx="1" width="16" x="138" y="134"></rect><rect class="tile-m" height="16" rx="1" width="16" x="156" y="134"></rect><rect class="tile-0" height="16" rx="1" width="16" x="30" y="152"></rect><rect class="tile-0" height="16" rx="1" width="16" x="48" y="152"></rect><rect class="tile-0" height="16" rx="1" width="16" x="66" y="152"></rect><rect class="tile-0" height="16" rx="1" width="16" x="84" y="152"></rect><rect class="tile-p" height="16" rx="1" width="16" x="102" y="152"></rect><rect class="tile-m" height="16" rx="1" width="16" x="120" y="152"></rect><rect class="tile-m" height="16" rx="1" width="16" x="138" y="152"></rect><rect class="tile-p" height="16" rx="1" width="16" x="156" y="152"></rect><text class="t-s t-b t-rot" text-anchor="middle" x="102" y="188">I₂ ⊗ H₄</text><text class="t-s t-mut" text-anchor="middle" x="102" y="204">헤드마다 따로 — 병합</text><text class="t-b t-mut" text-anchor="middle" x="200" y="100">·</text><rect class="tile-p" height="16" rx="1" width="16" x="220" y="26"></rect><rect class="tile-0" height="16" rx="1" width="16" x="238" y="26"></rect><rect class="tile-0" height="16" rx="1" width="16" x="256" y="26"></rect><rect class="tile-0" height="16" rx="1" width="16" x="274" y="26"></rect><rect class="tile-p" height="16" rx="1" width="16" x="292" y="26"></rect><rect class="tile-0" height="16" rx="1" width="16" x="310" y="26"></rect><rect class="tile-0" height="16" rx="1" width="16" x="328" y="26"></rect><rect class="tile-0" height="16" rx="1" width="16" x="346" y="26"></rect><rect class="tile-0" height="16" rx="1" width="16" x="220" y="44"></rect><rect class="tile-p" height="16" rx="1" width="16" x="238" y="44"></rect><rect class="tile-0" height="16" rx="1" width="16" x="256" y="44"></rect><rect class="tile-0" height="16" rx="1" width="16" x="274" y="44"></rect><rect class="tile-0" height="16" rx="1" width="16" x="292" y="44"></rect><rect class="tile-p" height="16" rx="1" width="16" x="310" y="44"></rect><rect class="tile-0" height="16" rx="1" width="16" x="328" y="44"></rect><rect class="tile-0" height="16" rx="1" width="16" x="346" y="44"></rect><rect class="tile-0" height="16" rx="1" width="16" x="220" y="62"></rect><rect class="tile-0" height="16" rx="1" width="16" x="238" y="62"></rect><rect class="tile-p" height="16" rx="1" width="16" x="256" y="62"></rect><rect class="tile-0" height="16" rx="1" width="16" x="274" y="62"></rect><rect class="tile-0" height="16" rx="1" width="16" x="292" y="62"></rect><rect class="tile-0" height="16" rx="1" width="16" x="310" y="62"></rect><rect class="tile-p" height="16" rx="1" width="16" x="328" y="62"></rect><rect class="tile-0" height="16" rx="1" width="16" x="346" y="62"></rect><rect class="tile-0" height="16" rx="1" width="16" x="220" y="80"></rect><rect class="tile-0" height="16" rx="1" width="16" x="238" y="80"></rect><rect class="tile-0" height="16" rx="1" width="16" x="256" y="80"></rect><rect class="tile-p" height="16" rx="1" width="16" x="274" y="80"></rect><rect class="tile-0" height="16" rx="1" width="16" x="292" y="80"></rect><rect class="tile-0" height="16" rx="1" width="16" x="310" y="80"></rect><rect class="tile-0" height="16" rx="1" width="16" x="328" y="80"></rect><rect class="tile-p" height="16" rx="1" width="16" x="346" y="80"></rect><rect class="tile-p" height="16" rx="1" width="16" x="220" y="98"></rect><rect class="tile-0" height="16" rx="1" width="16" x="238" y="98"></rect><rect class="tile-0" height="16" rx="1" width="16" x="256" y="98"></rect><rect class="tile-0" height="16" rx="1" width="16" x="274" y="98"></rect><rect class="tile-m" height="16" rx="1" width="16" x="292" y="98"></rect><rect class="tile-0" height="16" rx="1" width="16" x="310" y="98"></rect><rect class="tile-0" height="16" rx="1" width="16" x="328" y="98"></rect><rect class="tile-0" height="16" rx="1" width="16" x="346" y="98"></rect><rect class="tile-0" height="16" rx="1" width="16" x="220" y="116"></rect><rect class="tile-p" height="16" rx="1" width="16" x="238" y="116"></rect><rect class="tile-0" height="16" rx="1" width="16" x="256" y="116"></rect><rect class="tile-0" height="16" rx="1" width="16" x="274" y="116"></rect><rect class="tile-0" height="16" rx="1" width="16" x="292" y="116"></rect><rect class="tile-m" height="16" rx="1" width="16" x="310" y="116"></rect><rect class="tile-0" height="16" rx="1" width="16" x="328" y="116"></rect><rect class="tile-0" height="16" rx="1" width="16" x="346" y="116"></rect><rect class="tile-0" height="16" rx="1" width="16" x="220" y="134"></rect><rect class="tile-0" height="16" rx="1" width="16" x="238" y="134"></rect><rect class="tile-p" height="16" rx="1" width="16" x="256" y="134"></rect><rect class="tile-0" height="16" rx="1" width="16" x="274" y="134"></rect><rect class="tile-0" height="16" rx="1" width="16" x="292" y="134"></rect><rect class="tile-0" height="16" rx="1" width="16" x="310" y="134"></rect><rect class="tile-m" height="16" rx="1" width="16" x="328" y="134"></rect><rect class="tile-0" height="16" rx="1" width="16" x="346" y="134"></rect><rect class="tile-0" height="16" rx="1" width="16" x="220" y="152"></rect><rect class="tile-0" height="16" rx="1" width="16" x="238" y="152"></rect><rect class="tile-0" height="16" rx="1" width="16" x="256" y="152"></rect><rect class="tile-p" height="16" rx="1" width="16" x="274" y="152"></rect><rect class="tile-0" height="16" rx="1" width="16" x="292" y="152"></rect><rect class="tile-0" height="16" rx="1" width="16" x="310" y="152"></rect><rect class="tile-0" height="16" rx="1" width="16" x="328" y="152"></rect><rect class="tile-m" height="16" rx="1" width="16" x="346" y="152"></rect><text class="t-s t-b t-grid" text-anchor="middle" x="292" y="188">H₂ ⊗ I₄</text><text class="t-s t-mut" text-anchor="middle" x="292" y="204">헤드 사이 — 온라인</text><text class="t-b t-mut" text-anchor="middle" x="390" y="100">=</text><rect class="tile-p" height="16" rx="1" width="16" x="410" y="26"></rect><rect class="tile-p" height="16" rx="1" width="16" x="428" y="26"></rect><rect class="tile-p" height="16" rx="1" width="16" x="446" y="26"></rect><rect class="tile-p" height="16" rx="1" width="16" x="464" y="26"></rect><rect class="tile-p" height="16" rx="1" width="16" x="482" y="26"></rect><rect class="tile-p" height="16" rx="1" width="16" x="500" y="26"></rect><rect class="tile-p" height="16" rx="1" width="16" x="518" y="26"></rect><rect class="tile-p" height="16" rx="1" width="16" x="536" y="26"></rect><rect class="tile-p" height="16" rx="1" width="16" x="410" y="44"></rect><rect class="tile-m" height="16" rx="1" width="16" x="428" y="44"></rect><rect class="tile-p" height="16" rx="1" width="16" x="446" y="44"></rect><rect class="tile-m" height="16" rx="1" width="16" x="464" y="44"></rect><rect class="tile-p" height="16" rx="1" width="16" x="482" y="44"></rect><rect class="tile-m" height="16" rx="1" width="16" x="500" y="44"></rect><rect class="tile-p" height="16" rx="1" width="16" x="518" y="44"></rect><rect class="tile-m" height="16" rx="1" width="16" x="536" y="44"></rect><rect class="tile-p" height="16" rx="1" width="16" x="410" y="62"></rect><rect class="tile-p" height="16" rx="1" width="16" x="428" y="62"></rect><rect class="tile-m" height="16" rx="1" width="16" x="446" y="62"></rect><rect class="tile-m" height="16" rx="1" width="16" x="464" y="62"></rect><rect class="tile-p" height="16" rx="1" width="16" x="482" y="62"></rect><rect class="tile-p" height="16" rx="1" width="16" x="500" y="62"></rect><rect class="tile-m" height="16" rx="1" width="16" x="518" y="62"></rect><rect class="tile-m" height="16" rx="1" width="16" x="536" y="62"></rect><rect class="tile-p" height="16" rx="1" width="16" x="410" y="80"></rect><rect class="tile-m" height="16" rx="1" width="16" x="428" y="80"></rect><rect class="tile-m" height="16" rx="1" width="16" x="446" y="80"></rect><rect class="tile-p" height="16" rx="1" width="16" x="464" y="80"></rect><rect class="tile-p" height="16" rx="1" width="16" x="482" y="80"></rect><rect class="tile-m" height="16" rx="1" width="16" x="500" y="80"></rect><rect class="tile-m" height="16" rx="1" width="16" x="518" y="80"></rect><rect class="tile-p" height="16" rx="1" width="16" x="536" y="80"></rect><rect class="tile-p" height="16" rx="1" width="16" x="410" y="98"></rect><rect class="tile-p" height="16" rx="1" width="16" x="428" y="98"></rect><rect class="tile-p" height="16" rx="1" width="16" x="446" y="98"></rect><rect class="tile-p" height="16" rx="1" width="16" x="464" y="98"></rect><rect class="tile-m" height="16" rx="1" width="16" x="482" y="98"></rect><rect class="tile-m" height="16" rx="1" width="16" x="500" y="98"></rect><rect class="tile-m" height="16" rx="1" width="16" x="518" y="98"></rect><rect class="tile-m" height="16" rx="1" width="16" x="536" y="98"></rect><rect class="tile-p" height="16" rx="1" width="16" x="410" y="116"></rect><rect class="tile-m" height="16" rx="1" width="16" x="428" y="116"></rect><rect class="tile-p" height="16" rx="1" width="16" x="446" y="116"></rect><rect class="tile-m" height="16" rx="1" width="16" x="464" y="116"></rect><rect class="tile-m" height="16" rx="1" width="16" x="482" y="116"></rect><rect class="tile-p" height="16" rx="1" width="16" x="500" y="116"></rect><rect class="tile-m" height="16" rx="1" width="16" x="518" y="116"></rect><rect class="tile-p" height="16" rx="1" width="16" x="536" y="116"></rect><rect class="tile-p" height="16" rx="1" width="16" x="410" y="134"></rect><rect class="tile-p" height="16" rx="1" width="16" x="428" y="134"></rect><rect class="tile-m" height="16" rx="1" width="16" x="446" y="134"></rect><rect class="tile-m" height="16" rx="1" width="16" x="464" y="134"></rect><rect class="tile-m" height="16" rx="1" width="16" x="482" y="134"></rect><rect class="tile-m" height="16" rx="1" width="16" x="500" y="134"></rect><rect class="tile-p" height="16" rx="1" width="16" x="518" y="134"></rect><rect class="tile-p" height="16" rx="1" width="16" x="536" y="134"></rect><rect class="tile-p" height="16" rx="1" width="16" x="410" y="152"></rect><rect class="tile-m" height="16" rx="1" width="16" x="428" y="152"></rect><rect class="tile-m" height="16" rx="1" width="16" x="446" y="152"></rect><rect class="tile-p" height="16" rx="1" width="16" x="464" y="152"></rect><rect class="tile-m" height="16" rx="1" width="16" x="482" y="152"></rect><rect class="tile-p" height="16" rx="1" width="16" x="500" y="152"></rect><rect class="tile-p" height="16" rx="1" width="16" x="518" y="152"></rect><rect class="tile-m" height="16" rx="1" width="16" x="536" y="152"></rect><text class="t-s t-b t-ink" text-anchor="middle" x="482" y="188">H₈</text><text class="t-s t-mut" text-anchor="middle" x="482" y="204">헤드 2개 × 폭 4 전체</text><rect class="tile-p" height="10" rx="1" width="10" x="590" y="40"></rect><text class="t-s" text-anchor="start" x="606" y="49">+1</text><rect class="tile-m" height="10" rx="1" width="10" x="590" y="60"></rect><text class="t-s" text-anchor="start" x="606" y="69">−1</text><rect class="tile-0" height="10" rx="1" width="10" x="590" y="80"></rect><text class="t-s" text-anchor="start" x="606" y="89">0</text><text class="t-s" text-anchor="start" x="590" y="124">실제 LLaMA-2-7B는</text><text class="t-s" text-anchor="start" x="590" y="140">헤드 32개 × 폭 128.</text><text class="t-s t-grid" text-anchor="start" x="590" y="164">온라인 부분은 길이 32</text><text class="t-s t-grid" text-anchor="start" x="590" y="180">하다마드를 헤드 축으로</text><text class="t-s t-grid" text-anchor="start" x="590" y="196">한 번 — 아주 싸다.</text></svg></svg>